<?xml version="1.0"?>
<svg xmlns="http://www.w3.org/2000/svg" viewBox="0 0 50 50" enable-background="new 0 0 50 50">
    <path style="text-indent:0;text-align:start;line-height:normal;text-transform:none;block-progression:tb;-inkscape-font-specification:Bitstream Vera Sans" d="M 28.53125 0 A 1.0001 1.0001 0 0 0 28.03125 0.25 C 28.03125 0.25 25.752308 2.234149 23.78125 5.875 C 23.423667 5.3450621 23.009522 4.838913 22.5625 4.34375 C 21.701381 3.389895 20.790508 2.5478385 20.0625 2.0625 A 1.0001 1.0001 0 0 0 19.375 1.90625 A 1.0001 1.0001 0 0 0 18.59375 3.3125 C 18.59375 3.3125 19.574452 5.658758 19.84375 8.15625 C 19.167453 7.2476277 18.424359 6.4853279 17.6875 5.875 C 15.009493 3.6568528 12.25 3.21875 12.25 3.21875 A 1.0001 1.0001 0 0 0 12.0625 3.1875 A 1.0001 1.0001 0 0 0 11.46875 4.96875 C 11.46875 4.96875 12.505412 5.7727626 13.65625 7.96875 C 14.217699 9.0400858 14.780674 10.429264 15.21875 12.1875 C 12.842226 8.2566403 9.7097173 5.9697642 6.65625 5.5 A 1.0001 1.0001 0 0 0 6.34375 5.5 A 1.0001 1.0001 0 0 0 5.78125 7.1875 C 5.78125 7.1875 11 12.631401 11 19 A 1.0001 1.0001 0 1 0 13 19 C 13 14.797955 11.326709 11.521675 9.71875 9.125 C 12.166572 10.914188 14.610214 14.116387 16 19.09375 A 1.0001 1.0001 0 0 0 16.03125 19.1875 C 16.036717 19.207369 16.025816 19.230075 16.03125 19.25 A 1.0001 1.0001 0 0 0 16.03125 19.28125 A 1.0004882 1.0004882 0 0 0 16.0625 19.34375 A 1.0001 1.0001 0 0 0 16.09375 19.40625 A 1.0004882 1.0004882 0 0 0 16.125 19.5 A 1.0001 1.0001 0 0 0 16.28125 19.71875 A 1.0004882 1.0004882 0 0 0 16.34375 19.75 A 1.0001 1.0001 0 0 0 16.375 19.78125 A 1.0004882 1.0004882 0 0 0 16.40625 19.8125 A 1.0001 1.0001 0 0 0 16.53125 19.90625 A 1.0004882 1.0004882 0 0 0 16.59375 19.90625 A 1.0001 1.0001 0 0 0 16.625 19.9375 A 1.0004882 1.0004882 0 0 0 16.6875 19.9375 A 1.0001 1.0001 0 0 0 16.71875 19.96875 A 1.0004882 1.0004882 0 0 0 16.78125 19.96875 A 1.0001 1.0001 0 0 0 16.8125 20 A 1.0004882 1.0004882 0 0 0 16.875 20 A 1.0001 1.0001 0 0 0 16.90625 20 A 1.0004882 1.0004882 0 0 0 16.96875 20 A 1.0001 1.0001 0 0 0 17 20 A 1.0004882 1.0004882 0 0 0 17.125 20 A 1.0001 1.0001 0 0 0 17.28125 19.96875 A 1.0004882 1.0004882 0 0 0 17.46875 19.875 A 1.0001 1.0001 0 0 0 17.5 19.875 A 1.0004882 1.0004882 0 0 0 17.5625 19.84375 A 1.0001 1.0001 0 0 0 17.65625 19.78125 A 1.0004882 1.0004882 0 0 0 17.6875 19.75 A 1.0001 1.0001 0 0 0 17.71875 19.6875 A 1.0004882 1.0004882 0 0 0 17.78125 19.625 A 1.0001 1.0001 0 0 0 17.84375 19.53125 A 1.0004882 1.0004882 0 0 0 17.875 19.46875 A 1.0001 1.0001 0 0 0 18 19 C 18 13.400153 16.736662 9.5415126 15.4375 7.0625 C 15.349076 6.8937725 15.276504 6.8439855 15.1875 6.6875 C 15.613801 6.9486756 15.957978 7.0349539 16.40625 7.40625 C 18.536243 9.170487 20.705354 12.235271 20.96875 17.84375 C 20.980127 18.260838 20.966049 18.663709 21 19.09375 A 1.0043849 1.0043849 0 0 0 21.03125 19.28125 A 1.0001 1.0001 0 0 0 21.125 19.46875 A 1.0043849 1.0043849 0 0 0 21.28125 19.71875 A 1.0001 1.0001 0 0 0 21.4375 19.84375 A 1.0043849 1.0043849 0 0 0 21.53125 19.90625 A 1.0001 1.0001 0 0 0 21.8125 20 A 1.0043849 1.0043849 0 0 0 21.9375 20 A 1.0001 1.0001 0 0 0 22 20 A 1.0043849 1.0043849 0 0 0 22.03125 20 A 1.0001 1.0001 0 0 0 22.5 19.875 A 1.0043849 1.0043849 0 0 0 22.6875 19.71875 A 1.0001 1.0001 0 0 0 22.8125 19.59375 A 1.0043849 1.0043849 0 0 0 23 18.90625 C 22.997478 18.8743 23.002388 18.844359 23 18.8125 C 22.996339 18.306007 22.969071 17.819725 22.9375 17.34375 C 22.862645 11.022514 25.427151 6.6489661 27.34375 4.15625 C 27.186265 5.4646266 27.106809 5.8828659 26.9375 7.96875 C 26.628745 11.772614 26.436819 16.155157 27 19.03125 A 1.0001 1.0001 0 0 0 27.03125 19.1875 C 27.033231 19.196985 27.029251 19.209301 27.03125 19.21875 A 1.0001 1.0001 0 0 0 27.03125 19.28125 A 1.0001 1.0001 0 0 0 27.03125 19.3125 A 1.0001 1.0001 0 0 0 27.0625 19.375 A 1.0001 1.0001 0 0 0 29 19 C 29 18.98925 28.999988 18.979487 29 18.96875 A 1.0001 1.0001 0 0 0 29 18.84375 C 29.037208 12.224591 31.370263 8.0551605 33.6875 5.46875 C 34.247029 4.8442248 34.698659 4.5980179 35.21875 4.15625 C 33.73107 7.2579943 32.015648 11.848168 32 18.90625 C 31.999495 18.916453 32.000486 18.9273 32 18.9375 A 1.0019512 1.0019512 0 0 0 32 19.03125 A 1.0001 1.0001 0 0 0 32 19.09375 A 1.0019512 1.0019512 0 0 0 32 19.125 A 1.0001 1.0001 0 0 0 32.03125 19.1875 A 1.0019512 1.0019512 0 0 0 32.03125 19.25 A 1.0001 1.0001 0 0 0 32.09375 19.40625 A 1.0019512 1.0019512 0 0 0 32.09375 19.4375 A 1.0001 1.0001 0 0 0 32.125 19.46875 A 1.0019512 1.0019512 0 0 0 32.15625 19.53125 A 1.0001 1.0001 0 0 0 32.15625 19.5625 A 1.0019512 1.0019512 0 0 0 32.1875 19.59375 A 1.0001 1.0001 0 0 0 32.21875 19.65625 A 1.0019512 1.0019512 0 0 0 32.25 19.6875 A 1.0001 1.0001 0 0 0 32.28125 19.71875 A 1.0019512 1.0019512 0 0 0 32.34375 19.75 A 1.0001 1.0001 0 0 0 32.375 19.78125 A 1.0019512 1.0019512 0 0 0 32.40625 19.8125 A 1.0001 1.0001 0 0 0 32.4375 19.84375 A 1.0019512 1.0019512 0 0 0 32.5 19.875 A 1.0001 1.0001 0 0 0 32.53125 19.90625 A 1.0019512 1.0019512 0 0 0 32.59375 19.90625 A 1.0001 1.0001 0 0 0 32.625 19.9375 A 1.0019512 1.0019512 0 0 0 32.6875 19.9375 A 1.0001 1.0001 0 0 0 32.71875 19.96875 A 1.0019512 1.0019512 0 0 0 32.78125 19.96875 A 1.0001 1.0001 0 0 0 32.8125 20 A 1.0019512 1.0019512 0 0 0 32.875 20 A 1.0001 1.0001 0 0 0 32.90625 20 A 1.0019512 1.0019512 0 0 0 32.96875 20 A 1.0001 1.0001 0 0 0 33 20 A 1.0019512 1.0019512 0 0 0 33.0625 20 A 1.0001 1.0001 0 0 0 33.125 20 A 1.0019512 1.0019512 0 0 0 33.53125 19.84375 A 1.0001 1.0001 0 0 0 33.5625 19.84375 A 1.0019512 1.0019512 0 0 0 33.625 19.78125 A 1.0001 1.0001 0 0 0 33.65625 19.78125 A 1.0019512 1.0019512 0 0 0 33.6875 19.71875 A 1.0001 1.0001 0 0 0 33.71875 19.6875 A 1.0019512 1.0019512 0 0 0 33.75 19.65625 A 1.0001 1.0001 0 0 0 33.84375 19.53125 A 1.0019512 1.0019512 0 0 0 33.875 19.46875 A 1.0001 1.0001 0 0 0 33.90625 19.40625 A 1.0019512 1.0019512 0 0 0 33.96875 19.28125 A 1.0001 1.0001 0 0 0 34 19.09375 A 1.0019512 1.0019512 0 0 0 34 19.0625 A 1.0001 1.0001 0 0 0 34 19 C 34.152397 16.07834 35.279647 12.777436 36.8125 10.21875 C 37.673837 8.7809799 38.662258 7.7052515 39.625 6.90625 C 38.515692 9.5120744 36.90625 13.81432 36.90625 19 A 1.0001 1.0001 0 1 0 38.90625 19 C 38.90625 12.457488 42.5 5.15625 42.5 5.15625 A 1.0001 1.0001 0 0 0 41.53125 3.6875 A 1.0001 1.0001 0 0 0 41.4375 3.71875 C 39.199134 4.063114 37.261662 5.8961304 35.65625 8.3125 C 37.016565 4.0383904 38.71875 1.5625 38.71875 1.5625 A 1.0001 1.0001 0 0 0 37.78125 0 A 1.0001 1.0001 0 0 0 37.53125 0.0625 C 37.53125 0.0625 34.832808 1.2072885 32.21875 4.125 C 31.00477 5.4799981 29.793745 7.2582066 28.84375 9.46875 C 28.874329 9.0182074 28.902051 8.5617266 28.9375 8.125 C 29.247352 4.3076225 29.6875 1.125 29.6875 1.125 A 1.0001 1.0001 0 0 0 28.625 0 A 1.0001 1.0001 0 0 0 28.53125 0 z M 21.5625 6.375 C 22.01819 6.9767916 22.54803 7.6536973 22.65625 8 A 1.0001 1.0001 0 0 0 22.71875 8.1875 C 22.368407 9.0375579 22.049636 9.9632441 21.78125 10.9375 C 22.04017 9.3482796 21.847567 7.7814588 21.5625 6.375 z M 21.6875 11.28125 C 21.676838 11.322409 21.666725 11.364881 21.65625 11.40625 C 21.651136 11.393603 21.630137 11.38761 21.625 11.375 A 1.0001 1.0001 0 0 0 21.6875 11.28125 z M 10.8125 21 A 1.001098 1.001098 0 0 0 11 23 L 39 23 A 1.0001 1.0001 0 1 0 39 21 L 11 21 A 1.0001 1.0001 0 0 0 10.90625 21 A 1.001098 1.001098 0 0 0 10.8125 21 z M 10.8125 24 A 1.001098 1.001098 0 0 0 11 26 L 39 26 A 1.0001 1.0001 0 1 0 39 24 L 11 24 A 1.0001 1.0001 0 0 0 10.90625 24 A 1.001098 1.001098 0 0 0 10.8125 24 z M 10.8125 27 A 1.001098 1.001098 0 0 0 10.84375 29 C 8.4092338 38.65293 3 43.78125 3 43.78125 A 1.0001 1.0001 0 0 0 3.1875 45.34375 L 7.6875 48.0625 A 1.0001 1.0001 0 0 0 9.0625 47.71875 C 9.0625 47.71875 10.774039 44.875635 12.5 41.09375 C 11.767163 44.855932 11.03125 47.75 11.03125 47.75 A 1.0001 1.0001 0 0 0 11.75 48.96875 L 15.75 49.96875 A 1.0001 1.0001 0 0 0 16.96875 49.3125 C 16.96875 49.3125 17.499323 47.512497 18.1875 44.90625 L 18 48.9375 A 1.0001 1.0001 0 0 0 19 50 L 23 50 A 1.0001 1.0001 0 0 0 24 49.09375 L 25 38.875 L 26 49.09375 A 1.0001 1.0001 0 0 0 27 50 L 31 50 A 1.0001 1.0001 0 0 0 32 48.9375 L 31.8125 44.90625 C 32.500677 47.512497 33.03125 49.3125 33.03125 49.3125 A 1.0001 1.0001 0 0 0 34.25 49.96875 L 38.25 48.96875 A 1.0001 1.0001 0 0 0 38.96875 47.75 C 38.96875 47.75 38.239118 44.808933 37.5 41 C 39.225961 44.781885 40.9375 47.625 40.9375 47.625 A 1.0001 1.0001 0 0 0 42.3125 47.96875 L 46.8125 45.25 A 1.0001 1.0001 0 0 0 46.96875 43.65625 C 46.96875 43.65625 41.58547 38.633997 39.15625 28.96875 A 1.0001 1.0001 0 0 0 39 27 L 11 27 A 1.0001 1.0001 0 0 0 10.90625 27 A 1.001098 1.001098 0 0 0 10.8125 27 z M 12.90625 29 L 13.96875 29 C 13.84902 32.348578 12.296679 36.724004 10.6875 40.25 C 9.242517 43.416213 8.1802589 45.191889 7.8125 45.8125 L 5.15625 44.21875 C 6.2908215 43.03946 10.707267 38.238621 12.90625 29 z M 16 29 L 18.96875 29 L 18.875 31.15625 C 18.588681 34.321571 17.836232 38.071695 17.0625 41.28125 C 16.181209 44.936977 15.485929 47.114607 15.28125 47.78125 L 13.1875 47.28125 C 13.554591 45.832965 15.980145 36.12485 16 29 z M 21 29 L 23.9375 29 L 22.09375 48 L 20.0625 48 L 20.84375 31.625 C 20.931496 30.713383 20.992535 29.831619 21 29 z M 26.0625 29 L 29 29 C 29.007465 29.831619 29.068504 30.713383 29.15625 31.625 L 29.9375 48 L 27.90625 48 L 26.0625 29 z M 31.03125 29 L 34 29 C 34.019859 36.12485 36.445409 45.832965 36.8125 47.28125 L 34.71875 47.78125 C 34.514071 47.114607 33.818791 44.936977 32.9375 41.28125 C 32.163768 38.071695 31.411319 34.321571 31.125 31.15625 L 31.03125 29 z M 36.03125 29 L 37.09375 29 C 39.285204 38.208613 43.655605 42.938421 44.8125 44.125 L 42.1875 45.6875 C 41.811911 45.053224 40.751083 43.30844 39.3125 40.15625 C 37.718234 36.662931 36.176497 32.33636 36.03125 29 z"/>
</svg>
