<svg xmlns="http://www.w3.org/2000/svg" width="342" height="457" version="1.1"><defs><linearGradient id="gr0" x1="0%" x2="100%" y1="0%" y2="100%"><stop offset="0%" stop-color="rgb(120,87,46)"/><stop offset="100%" stop-color="rgb(112,81,41)"/></linearGradient></defs><polygon id="triangle36" points="63,129 70,110 52,150" style="fill: url(#gr0); stroke: rgb(0, 0, 0); stroke-width: 0;"/><defs><linearGradient id="gr1" x1="0%" x2="100%" y1="0%" y2="100%"><stop offset="0%" stop-color="rgb(100,67,28)"/><stop offset="100%" stop-color="rgb(101,68,29)"/></linearGradient></defs><polygon id="triangle36" points="44,171 52,150 37,186" style="fill: url(#gr1); stroke: rgb(0, 0, 0); stroke-width: 0;"/><defs><linearGradient id="gr2" x1="0%" x2="100%" y1="0%" y2="100%"><stop offset="0%" stop-color="rgb(100,67,28)"/><stop offset="100%" stop-color="rgb(99,66,27)"/></linearGradient></defs><polygon id="triangle36" points="31,339 40,354 46,368" style="fill: url(#gr2); stroke: rgb(0, 0, 0); stroke-width: 0;"/><defs><linearGradient id="gr3" x1="0%" x2="100%" y1="0%" y2="100%"><stop offset="0%" stop-color="rgb(95,63,26)"/><stop offset="100%" stop-color="rgb(86,57,23)"/></linearGradient></defs><polygon id="triangle36" points="46,368 55,374 66,384" style="fill: url(#gr3); stroke: rgb(0, 0, 0); stroke-width: 0;"/><defs><linearGradient id="gr4" x1="0%" x2="100%" y1="0%" y2="100%"><stop offset="0%" stop-color="rgb(70,46,18)"/><stop offset="100%" stop-color="rgb(67,44,18)"/></linearGradient></defs><polygon id="triangle36" points="66,384 75,390 96,406" style="fill: url(#gr4); stroke: rgb(0, 0, 0); stroke-width: 0;"/><defs><linearGradient id="gr5" x1="0%" x2="100%" y1="0%" y2="100%"><stop offset="0%" stop-color="rgb(161,147,116)"/><stop offset="100%" stop-color="rgb(145,128,97)"/></linearGradient></defs><polygon id="triangle36" points="204,422 227,413 243,409" style="fill: url(#gr5); stroke: rgb(0, 0, 0); stroke-width: 0;"/><defs><linearGradient id="gr6" x1="0%" x2="100%" y1="0%" y2="100%"><stop offset="0%" stop-color="rgb(93,62,25)"/><stop offset="100%" stop-color="rgb(71,47,19)"/></linearGradient></defs><polygon id="triangle36" points="266,397 276,387 294,375" style="fill: url(#gr6); stroke: rgb(0, 0, 0); stroke-width: 0;"/><defs><linearGradient id="gr7" x1="0%" x2="100%" y1="0%" y2="100%"><stop offset="0%" stop-color="rgb(93,60,24)"/><stop offset="100%" stop-color="rgb(61,39,16)"/></linearGradient></defs><polygon id="triangle36" points="320,236 327,261 317,211" style="fill: url(#gr7); stroke: rgb(0, 0, 0); stroke-width: 0;"/><defs><linearGradient id="gr8" x1="0%" x2="100%" y1="0%" y2="100%"><stop offset="0%" stop-color="rgb(130,93,55)"/><stop offset="100%" stop-color="rgb(105,77,48)"/></linearGradient></defs><polygon id="triangle36" points="106,58 120,45 145,57" style="fill: url(#gr8); stroke: rgb(0, 0, 0); stroke-width: 0;"/><defs><linearGradient id="gr9" x1="0%" x2="100%" y1="0%" y2="100%"><stop offset="0%" stop-color="rgb(130,91,51)"/><stop offset="100%" stop-color="rgb(104,75,45)"/></linearGradient></defs><polygon id="triangle36" points="120,45 133,35 145,57" style="fill: url(#gr9); stroke: rgb(0, 0, 0); stroke-width: 0;"/><defs><linearGradient id="gr10" x1="0%" x2="100%" y1="0%" y2="100%"><stop offset="0%" stop-color="rgb(125,86,47)"/><stop offset="100%" stop-color="rgb(104,74,44)"/></linearGradient></defs><polygon id="triangle36" points="133,35 153,27 145,57" style="fill: url(#gr10); stroke: rgb(0, 0, 0); stroke-width: 0;"/><defs><linearGradient id="gr11" x1="0%" x2="100%" y1="0%" y2="100%"><stop offset="0%" stop-color="rgb(127,87,47)"/><stop offset="100%" stop-color="rgb(104,73,43)"/></linearGradient></defs><polygon id="triangle36" points="153,27 175,23 145,57" style="fill: url(#gr11); stroke: rgb(0, 0, 0); stroke-width: 0;"/><defs><linearGradient id="gr12" x1="0%" x2="100%" y1="0%" y2="100%"><stop offset="0%" stop-color="rgb(52,42,33)"/><stop offset="100%" stop-color="rgb(61,43,25)"/></linearGradient></defs><polygon id="triangle36" points="145,57 175,23 200,52" style="fill: url(#gr12); stroke: rgb(0, 0, 0); stroke-width: 0;"/><defs><linearGradient id="gr13" x1="0%" x2="100%" y1="0%" y2="100%"><stop offset="0%" stop-color="rgb(98,65,25)"/><stop offset="100%" stop-color="rgb(64,44,22)"/></linearGradient></defs><polygon id="triangle36" points="175,23 198,24 200,52" style="fill: url(#gr13); stroke: rgb(0, 0, 0); stroke-width: 0;"/><defs><linearGradient id="gr14" x1="0%" x2="100%" y1="0%" y2="100%"><stop offset="0%" stop-color="rgb(74,50,20)"/><stop offset="100%" stop-color="rgb(66,46,23)"/></linearGradient></defs><polygon id="triangle36" points="198,24 223,37 200,52" style="fill: url(#gr14); stroke: rgb(0, 0, 0); stroke-width: 0;"/><defs><linearGradient id="gr15" x1="0%" x2="100%" y1="0%" y2="100%"><stop offset="0%" stop-color="rgb(78,53,21)"/><stop offset="100%" stop-color="rgb(78,54,26)"/></linearGradient></defs><polygon id="triangle36" points="223,37 238,53 200,52" style="fill: url(#gr15); stroke: rgb(0, 0, 0); stroke-width: 0;"/><defs><linearGradient id="gr16" x1="0%" x2="100%" y1="0%" y2="100%"><stop offset="0%" stop-color="rgb(102,80,51)"/><stop offset="100%" stop-color="rgb(96,87,69)"/></linearGradient></defs><polygon id="triangle36" points="106,58 145,57 116,94" style="fill: url(#gr16); stroke: rgb(0, 0, 0); stroke-width: 0;"/><defs><linearGradient id="gr17" x1="0%" x2="100%" y1="0%" y2="100%"><stop offset="0%" stop-color="rgb(148,123,84)"/><stop offset="100%" stop-color="rgb(143,123,89)"/></linearGradient></defs><polygon id="triangle36" points="80,92 90,75 116,94" style="fill: url(#gr17); stroke: rgb(0, 0, 0); stroke-width: 0;"/><defs><linearGradient id="gr18" x1="0%" x2="100%" y1="0%" y2="100%"><stop offset="0%" stop-color="rgb(139,110,72)"/><stop offset="100%" stop-color="rgb(139,116,83)"/></linearGradient></defs><polygon id="triangle36" points="90,75 106,58 116,94" style="fill: url(#gr18); stroke: rgb(0, 0, 0); stroke-width: 0;"/><defs><linearGradient id="gr19" x1="0%" x2="100%" y1="0%" y2="100%"><stop offset="0%" stop-color="rgb(111,101,81)"/><stop offset="100%" stop-color="rgb(80,68,52)"/></linearGradient></defs><polygon id="triangle36" points="116,94 145,57 168,99" style="fill: url(#gr19); stroke: rgb(0, 0, 0); stroke-width: 0;"/><defs><linearGradient id="gr20" x1="0%" x2="100%" y1="0%" y2="100%"><stop offset="0%" stop-color="rgb(57,48,37)"/><stop offset="100%" stop-color="rgb(64,52,40)"/></linearGradient></defs><polygon id="triangle36" points="145,57 200,52 168,99" style="fill: url(#gr20); stroke: rgb(0, 0, 0); stroke-width: 0;"/><defs><linearGradient id="gr21" x1="0%" x2="100%" y1="0%" y2="100%"><stop offset="0%" stop-color="rgb(82,64,47)"/><stop offset="100%" stop-color="rgb(71,52,38)"/></linearGradient></defs><polygon id="triangle36" points="168,99 200,52 230,105" style="fill: url(#gr21); stroke: rgb(0, 0, 0); stroke-width: 0;"/><defs><linearGradient id="gr22" x1="0%" x2="100%" y1="0%" y2="100%"><stop offset="0%" stop-color="rgb(53,42,32)"/><stop offset="100%" stop-color="rgb(85,63,39)"/></linearGradient></defs><polygon id="triangle36" points="200,52 238,53 230,105" style="fill: url(#gr22); stroke: rgb(0, 0, 0); stroke-width: 0;"/><defs><linearGradient id="gr23" x1="0%" x2="100%" y1="0%" y2="100%"><stop offset="0%" stop-color="rgb(107,82,48)"/><stop offset="100%" stop-color="rgb(103,78,49)"/></linearGradient></defs><polygon id="triangle36" points="238,53 255,72 230,105" style="fill: url(#gr23); stroke: rgb(0, 0, 0); stroke-width: 0;"/><defs><linearGradient id="gr24" x1="0%" x2="100%" y1="0%" y2="100%"><stop offset="0%" stop-color="rgb(120,94,58)"/><stop offset="100%" stop-color="rgb(114,88,56)"/></linearGradient></defs><polygon id="triangle36" points="255,72 271,96 230,105" style="fill: url(#gr24); stroke: rgb(0, 0, 0); stroke-width: 0;"/><defs><linearGradient id="gr25" x1="0%" x2="100%" y1="0%" y2="100%"><stop offset="0%" stop-color="rgb(120,93,55)"/><stop offset="100%" stop-color="rgb(111,84,55)"/></linearGradient></defs><polygon id="triangle36" points="271,96 282,115 230,105" style="fill: url(#gr25); stroke: rgb(0, 0, 0); stroke-width: 0;"/><defs><linearGradient id="gr26" x1="0%" x2="100%" y1="0%" y2="100%"><stop offset="0%" stop-color="rgb(150,129,89)"/><stop offset="100%" stop-color="rgb(141,123,89)"/></linearGradient></defs><polygon id="triangle36" points="52,150 63,129 94,140" style="fill: url(#gr26); stroke: rgb(0, 0, 0); stroke-width: 0;"/><defs><linearGradient id="gr27" x1="0%" x2="100%" y1="0%" y2="100%"><stop offset="0%" stop-color="rgb(158,136,96)"/><stop offset="100%" stop-color="rgb(138,121,87)"/></linearGradient></defs><polygon id="triangle36" points="63,129 70,110 94,140" style="fill: url(#gr27); stroke: rgb(0, 0, 0); stroke-width: 0;"/><defs><linearGradient id="gr28" x1="0%" x2="100%" y1="0%" y2="100%"><stop offset="0%" stop-color="rgb(151,130,91)"/><stop offset="100%" stop-color="rgb(135,118,84)"/></linearGradient></defs><polygon id="triangle36" points="70,110 80,92 94,140" style="fill: url(#gr28); stroke: rgb(0, 0, 0); stroke-width: 0;"/><defs><linearGradient id="gr29" x1="0%" x2="100%" y1="0%" y2="100%"><stop offset="0%" stop-color="rgb(132,111,76)"/><stop offset="100%" stop-color="rgb(129,119,94)"/></linearGradient></defs><polygon id="triangle36" points="80,92 116,94 94,140" style="fill: url(#gr29); stroke: rgb(0, 0, 0); stroke-width: 0;"/><defs><linearGradient id="gr30" x1="0%" x2="100%" y1="0%" y2="100%"><stop offset="0%" stop-color="rgb(111,101,80)"/><stop offset="100%" stop-color="rgb(89,75,56)"/></linearGradient></defs><polygon id="triangle36" points="116,94 168,99 146,144" style="fill: url(#gr30); stroke: rgb(0, 0, 0); stroke-width: 0;"/><defs><linearGradient id="gr31" x1="0%" x2="100%" y1="0%" y2="100%"><stop offset="0%" stop-color="rgb(178,170,143)"/><stop offset="100%" stop-color="rgb(158,149,125)"/></linearGradient></defs><polygon id="triangle36" points="94,140 116,94 146,144" style="fill: url(#gr31); stroke: rgb(0, 0, 0); stroke-width: 0;"/><defs><linearGradient id="gr32" x1="0%" x2="100%" y1="0%" y2="100%"><stop offset="0%" stop-color="rgb(134,110,82)"/><stop offset="100%" stop-color="rgb(118,94,65)"/></linearGradient></defs><polygon id="triangle36" points="230,105 282,115 253,158" style="fill: url(#gr32); stroke: rgb(0, 0, 0); stroke-width: 0;"/><defs><linearGradient id="gr33" x1="0%" x2="100%" y1="0%" y2="100%"><stop offset="0%" stop-color="rgb(126,102,68)"/><stop offset="100%" stop-color="rgb(111,91,63)"/></linearGradient></defs><polygon id="triangle36" points="282,115 295,140 253,158" style="fill: url(#gr33); stroke: rgb(0, 0, 0); stroke-width: 0;"/><defs><linearGradient id="gr34" x1="0%" x2="100%" y1="0%" y2="100%"><stop offset="0%" stop-color="rgb(100,82,54)"/><stop offset="100%" stop-color="rgb(94,78,54)"/></linearGradient></defs><polygon id="triangle36" points="295,140 306,164 253,158" style="fill: url(#gr34); stroke: rgb(0, 0, 0); stroke-width: 0;"/><defs><linearGradient id="gr35" x1="0%" x2="100%" y1="0%" y2="100%"><stop offset="0%" stop-color="rgb(154,131,91)"/><stop offset="100%" stop-color="rgb(137,117,83)"/></linearGradient></defs><polygon id="triangle36" points="28,215 37,186 75,191" style="fill: url(#gr35); stroke: rgb(0, 0, 0); stroke-width: 0;"/><defs><linearGradient id="gr36" x1="0%" x2="100%" y1="0%" y2="100%"><stop offset="0%" stop-color="rgb(152,130,90)"/><stop offset="100%" stop-color="rgb(136,117,82)"/></linearGradient></defs><polygon id="triangle36" points="37,186 44,171 75,191" style="fill: url(#gr36); stroke: rgb(0, 0, 0); stroke-width: 0;"/><defs><linearGradient id="gr37" x1="0%" x2="100%" y1="0%" y2="100%"><stop offset="0%" stop-color="rgb(152,130,90)"/><stop offset="100%" stop-color="rgb(137,118,83)"/></linearGradient></defs><polygon id="triangle36" points="44,171 52,150 75,191" style="fill: url(#gr37); stroke: rgb(0, 0, 0); stroke-width: 0;"/><defs><linearGradient id="gr38" x1="0%" x2="100%" y1="0%" y2="100%"><stop offset="0%" stop-color="rgb(127,107,71)"/><stop offset="100%" stop-color="rgb(119,108,82)"/></linearGradient></defs><polygon id="triangle36" points="52,150 94,140 75,191" style="fill: url(#gr38); stroke: rgb(0, 0, 0); stroke-width: 0;"/><defs><linearGradient id="gr39" x1="0%" x2="100%" y1="0%" y2="100%"><stop offset="0%" stop-color="rgb(125,106,78)"/><stop offset="100%" stop-color="rgb(60,51,37)"/></linearGradient></defs><polygon id="triangle36" points="253,158 306,164 256,212" style="fill: url(#gr39); stroke: rgb(0, 0, 0); stroke-width: 0;"/><defs><linearGradient id="gr40" x1="0%" x2="100%" y1="0%" y2="100%"><stop offset="0%" stop-color="rgb(105,98,76)"/><stop offset="100%" stop-color="rgb(92,81,59)"/></linearGradient></defs><polygon id="triangle36" points="306,164 312,187 256,212" style="fill: url(#gr40); stroke: rgb(0, 0, 0); stroke-width: 0;"/><defs><linearGradient id="gr41" x1="0%" x2="100%" y1="0%" y2="100%"><stop offset="0%" stop-color="rgb(117,106,78)"/><stop offset="100%" stop-color="rgb(100,86,60)"/></linearGradient></defs><polygon id="triangle36" points="312,187 317,211 256,212" style="fill: url(#gr41); stroke: rgb(0, 0, 0); stroke-width: 0;"/><defs><linearGradient id="gr42" x1="0%" x2="100%" y1="0%" y2="100%"><stop offset="0%" stop-color="rgb(148,124,85)"/><stop offset="100%" stop-color="rgb(138,109,78)"/></linearGradient></defs><polygon id="triangle36" points="20,263 24,238 60,249" style="fill: url(#gr42); stroke: rgb(0, 0, 0); stroke-width: 0;"/><defs><linearGradient id="gr43" x1="0%" x2="100%" y1="0%" y2="100%"><stop offset="0%" stop-color="rgb(150,128,88)"/><stop offset="100%" stop-color="rgb(139,112,80)"/></linearGradient></defs><polygon id="triangle36" points="24,238 28,215 60,249" style="fill: url(#gr43); stroke: rgb(0, 0, 0); stroke-width: 0;"/><defs><linearGradient id="gr44" x1="0%" x2="100%" y1="0%" y2="100%"><stop offset="0%" stop-color="rgb(127,103,68)"/><stop offset="100%" stop-color="rgb(125,103,80)"/></linearGradient></defs><polygon id="triangle36" points="28,215 75,191 60,249" style="fill: url(#gr44); stroke: rgb(0, 0, 0); stroke-width: 0;"/><defs><linearGradient id="gr45" x1="0%" x2="100%" y1="0%" y2="100%"><stop offset="0%" stop-color="rgb(85,75,54)"/><stop offset="100%" stop-color="rgb(62,54,38)"/></linearGradient></defs><polygon id="triangle36" points="75,191 94,140 142,197" style="fill: url(#gr45); stroke: rgb(0, 0, 0); stroke-width: 0;"/><defs><linearGradient id="gr46" x1="0%" x2="100%" y1="0%" y2="100%"><stop offset="0%" stop-color="rgb(95,83,62)"/><stop offset="100%" stop-color="rgb(62,51,36)"/></linearGradient></defs><polygon id="triangle36" points="94,140 146,144 142,197" style="fill: url(#gr46); stroke: rgb(0, 0, 0); stroke-width: 0;"/><defs><linearGradient id="gr47" x1="0%" x2="100%" y1="0%" y2="100%"><stop offset="0%" stop-color="rgb(110,86,56)"/><stop offset="100%" stop-color="rgb(195,140,93)"/></linearGradient></defs><polygon id="triangle36" points="142,197 168,269 112,261" style="fill: url(#gr47); stroke: rgb(0, 0, 0); stroke-width: 0;"/><defs><linearGradient id="gr48" x1="0%" x2="100%" y1="0%" y2="100%"><stop offset="0%" stop-color="rgb(108,70,58)"/><stop offset="100%" stop-color="rgb(129,84,71)"/></linearGradient></defs><polygon id="triangle36" points="60,249 75,191 112,261" style="fill: url(#gr48); stroke: rgb(0, 0, 0); stroke-width: 0;"/><defs><linearGradient id="gr49" x1="0%" x2="100%" y1="0%" y2="100%"><stop offset="0%" stop-color="rgb(94,70,53)"/><stop offset="100%" stop-color="rgb(96,54,45)"/></linearGradient></defs><polygon id="triangle36" points="75,191 142,197 112,261" style="fill: url(#gr49); stroke: rgb(0, 0, 0); stroke-width: 0;"/><defs><linearGradient id="gr50" x1="0%" x2="100%" y1="0%" y2="100%"><stop offset="0%" stop-color="rgb(45,35,19)"/><stop offset="100%" stop-color="rgb(72,61,28)"/></linearGradient></defs><polygon id="triangle36" points="256,212 262,275 212,277" style="fill: url(#gr50); stroke: rgb(0, 0, 0); stroke-width: 0;"/><defs><linearGradient id="gr51" x1="0%" x2="100%" y1="0%" y2="100%"><stop offset="0%" stop-color="rgb(83,53,24)"/><stop offset="100%" stop-color="rgb(88,53,30)"/></linearGradient></defs><polygon id="triangle36" points="22,316 31,339 64,330" style="fill: url(#gr51); stroke: rgb(0, 0, 0); stroke-width: 0;"/><defs><linearGradient id="gr52" x1="0%" x2="100%" y1="0%" y2="100%"><stop offset="0%" stop-color="rgb(83,53,25)"/><stop offset="100%" stop-color="rgb(88,53,30)"/></linearGradient></defs><polygon id="triangle36" points="31,339 40,354 64,330" style="fill: url(#gr52); stroke: rgb(0, 0, 0); stroke-width: 0;"/><defs><linearGradient id="gr53" x1="0%" x2="100%" y1="0%" y2="100%"><stop offset="0%" stop-color="rgb(71,45,21)"/><stop offset="100%" stop-color="rgb(79,47,28)"/></linearGradient></defs><polygon id="triangle36" points="40,354 46,368 64,330" style="fill: url(#gr53); stroke: rgb(0, 0, 0); stroke-width: 0;"/><defs><linearGradient id="gr54" x1="0%" x2="100%" y1="0%" y2="100%"><stop offset="0%" stop-color="rgb(68,43,20)"/><stop offset="100%" stop-color="rgb(75,44,27)"/></linearGradient></defs><polygon id="triangle36" points="46,368 55,374 64,330" style="fill: url(#gr54); stroke: rgb(0, 0, 0); stroke-width: 0;"/><defs><linearGradient id="gr55" x1="0%" x2="100%" y1="0%" y2="100%"><stop offset="0%" stop-color="rgb(64,39,20)"/><stop offset="100%" stop-color="rgb(70,40,25)"/></linearGradient></defs><polygon id="triangle36" points="55,374 66,384 64,330" style="fill: url(#gr55); stroke: rgb(0, 0, 0); stroke-width: 0;"/><defs><linearGradient id="gr56" x1="0%" x2="100%" y1="0%" y2="100%"><stop offset="0%" stop-color="rgb(221,145,110)"/><stop offset="100%" stop-color="rgb(223,161,97)"/></linearGradient></defs><polygon id="triangle36" points="112,261 168,269 121,337" style="fill: url(#gr56); stroke: rgb(0, 0, 0); stroke-width: 0;"/><defs><linearGradient id="gr57" x1="0%" x2="100%" y1="0%" y2="100%"><stop offset="0%" stop-color="rgb(137,70,65)"/><stop offset="100%" stop-color="rgb(194,111,92)"/></linearGradient></defs><polygon id="triangle36" points="64,330 112,261 121,337" style="fill: url(#gr57); stroke: rgb(0, 0, 0); stroke-width: 0;"/><defs><linearGradient id="gr58" x1="0%" x2="100%" y1="0%" y2="100%"><stop offset="0%" stop-color="rgb(93,47,42)"/><stop offset="100%" stop-color="rgb(128,78,51)"/></linearGradient></defs><polygon id="triangle36" points="64,330 66,384 121,337" style="fill: url(#gr58); stroke: rgb(0, 0, 0); stroke-width: 0;"/><defs><linearGradient id="gr59" x1="0%" x2="100%" y1="0%" y2="100%"><stop offset="0%" stop-color="rgb(67,38,23)"/><stop offset="100%" stop-color="rgb(115,70,46)"/></linearGradient></defs><polygon id="triangle36" points="66,384 75,390 121,337" style="fill: url(#gr59); stroke: rgb(0, 0, 0); stroke-width: 0;"/><defs><linearGradient id="gr60" x1="0%" x2="100%" y1="0%" y2="100%"><stop offset="0%" stop-color="rgb(219,149,92)"/><stop offset="100%" stop-color="rgb(149,109,60)"/></linearGradient></defs><polygon id="triangle36" points="121,337 168,269 183,343" style="fill: url(#gr60); stroke: rgb(0, 0, 0); stroke-width: 0;"/><defs><linearGradient id="gr61" x1="0%" x2="100%" y1="0%" y2="100%"><stop offset="0%" stop-color="rgb(109,82,40)"/><stop offset="100%" stop-color="rgb(59,43,21)"/></linearGradient></defs><polygon id="triangle36" points="168,269 212,277 183,343" style="fill: url(#gr61); stroke: rgb(0, 0, 0); stroke-width: 0;"/><defs><linearGradient id="gr62" x1="0%" x2="100%" y1="0%" y2="100%"><stop offset="0%" stop-color="rgb(59,42,20)"/><stop offset="100%" stop-color="rgb(97,83,42)"/></linearGradient></defs><polygon id="triangle36" points="183,343 212,277 256,336" style="fill: url(#gr62); stroke: rgb(0, 0, 0); stroke-width: 0;"/><defs><linearGradient id="gr63" x1="0%" x2="100%" y1="0%" y2="100%"><stop offset="0%" stop-color="rgb(90,75,37)"/><stop offset="100%" stop-color="rgb(66,57,36)"/></linearGradient></defs><polygon id="triangle36" points="212,277 262,275 256,336" style="fill: url(#gr63); stroke: rgb(0, 0, 0); stroke-width: 0;"/><defs><linearGradient id="gr64" x1="0%" x2="100%" y1="0%" y2="100%"><stop offset="0%" stop-color="rgb(115,95,65)"/><stop offset="100%" stop-color="rgb(101,86,60)"/></linearGradient></defs><polygon id="triangle36" points="266,397 276,387 256,336" style="fill: url(#gr64); stroke: rgb(0, 0, 0); stroke-width: 0;"/><defs><linearGradient id="gr65" x1="0%" x2="100%" y1="0%" y2="100%"><stop offset="0%" stop-color="rgb(123,101,65)"/><stop offset="100%" stop-color="rgb(100,87,59)"/></linearGradient></defs><polygon id="triangle36" points="276,387 294,375 256,336" style="fill: url(#gr65); stroke: rgb(0, 0, 0); stroke-width: 0;"/><defs><linearGradient id="gr66" x1="0%" x2="100%" y1="0%" y2="100%"><stop offset="0%" stop-color="rgb(109,93,62)"/><stop offset="100%" stop-color="rgb(114,97,63)"/></linearGradient></defs><polygon id="triangle36" points="294,375 306,354 256,336" style="fill: url(#gr66); stroke: rgb(0, 0, 0); stroke-width: 0;"/><defs><linearGradient id="gr67" x1="0%" x2="100%" y1="0%" y2="100%"><stop offset="0%" stop-color="rgb(132,109,67)"/><stop offset="100%" stop-color="rgb(120,102,64)"/></linearGradient></defs><polygon id="triangle36" points="306,354 316,331 256,336" style="fill: url(#gr67); stroke: rgb(0, 0, 0); stroke-width: 0;"/><defs><linearGradient id="gr68" x1="0%" x2="100%" y1="0%" y2="100%"><stop offset="0%" stop-color="rgb(54,35,16)"/><stop offset="100%" stop-color="rgb(56,36,22)"/></linearGradient></defs><polygon id="triangle36" points="113,414 138,420 134,387" style="fill: url(#gr68); stroke: rgb(0, 0, 0); stroke-width: 0;"/><defs><linearGradient id="gr69" x1="0%" x2="100%" y1="0%" y2="100%"><stop offset="0%" stop-color="rgb(202,134,82)"/><stop offset="100%" stop-color="rgb(92,58,37)"/></linearGradient></defs><polygon id="triangle36" points="121,337 183,343 134,387" style="fill: url(#gr69); stroke: rgb(0, 0, 0); stroke-width: 0;"/><defs><linearGradient id="gr70" x1="0%" x2="100%" y1="0%" y2="100%"><stop offset="0%" stop-color="rgb(59,43,22)"/><stop offset="100%" stop-color="rgb(59,41,26)"/></linearGradient></defs><polygon id="triangle36" points="138,420 157,422 134,387" style="fill: url(#gr70); stroke: rgb(0, 0, 0); stroke-width: 0;"/><defs><linearGradient id="gr71" x1="0%" x2="100%" y1="0%" y2="100%"><stop offset="0%" stop-color="rgb(66,53,31)"/><stop offset="100%" stop-color="rgb(70,53,37)"/></linearGradient></defs><polygon id="triangle36" points="157,422 182,422 134,387" style="fill: url(#gr71); stroke: rgb(0, 0, 0); stroke-width: 0;"/><defs><linearGradient id="gr72" x1="0%" x2="100%" y1="0%" y2="100%"><stop offset="0%" stop-color="rgb(69,37,26)"/><stop offset="100%" stop-color="rgb(116,68,51)"/></linearGradient></defs><polygon id="triangle36" points="75,390 121,337 134,387" style="fill: url(#gr72); stroke: rgb(0, 0, 0); stroke-width: 0;"/><defs><linearGradient id="gr73" x1="0%" x2="100%" y1="0%" y2="100%"><stop offset="0%" stop-color="rgb(54,34,17)"/><stop offset="100%" stop-color="rgb(57,34,20)"/></linearGradient></defs><polygon id="triangle36" points="75,390 96,406 134,387" style="fill: url(#gr73); stroke: rgb(0, 0, 0); stroke-width: 0;"/><defs><linearGradient id="gr74" x1="0%" x2="100%" y1="0%" y2="100%"><stop offset="0%" stop-color="rgb(54,34,16)"/><stop offset="100%" stop-color="rgb(56,34,20)"/></linearGradient></defs><polygon id="triangle36" points="96,406 113,414 134,387" style="fill: url(#gr74); stroke: rgb(0, 0, 0); stroke-width: 0;"/><defs><linearGradient id="gr75" x1="0%" x2="100%" y1="0%" y2="100%"><stop offset="0%" stop-color="rgb(57,40,28)"/><stop offset="100%" stop-color="rgb(79,69,47)"/></linearGradient></defs><polygon id="triangle36" points="134,387 182,422 207,392" style="fill: url(#gr75); stroke: rgb(0, 0, 0); stroke-width: 0;"/><defs><linearGradient id="gr76" x1="0%" x2="100%" y1="0%" y2="100%"><stop offset="0%" stop-color="rgb(80,55,33)"/><stop offset="100%" stop-color="rgb(71,56,35)"/></linearGradient></defs><polygon id="triangle36" points="134,387 183,343 207,392" style="fill: url(#gr76); stroke: rgb(0, 0, 0); stroke-width: 0;"/><defs><linearGradient id="gr77" x1="0%" x2="100%" y1="0%" y2="100%"><stop offset="0%" stop-color="rgb(97,85,61)"/><stop offset="100%" stop-color="rgb(111,100,75)"/></linearGradient></defs><polygon id="triangle36" points="182,422 204,422 207,392" style="fill: url(#gr77); stroke: rgb(0, 0, 0); stroke-width: 0;"/><defs><linearGradient id="gr78" x1="0%" x2="100%" y1="0%" y2="100%"><stop offset="0%" stop-color="rgb(73,58,41)"/><stop offset="100%" stop-color="rgb(92,83,57)"/></linearGradient></defs><polygon id="triangle36" points="183,343 256,336 207,392" style="fill: url(#gr78); stroke: rgb(0, 0, 0); stroke-width: 0;"/><defs><linearGradient id="gr79" x1="0%" x2="100%" y1="0%" y2="100%"><stop offset="0%" stop-color="rgb(134,122,94)"/><stop offset="100%" stop-color="rgb(112,103,81)"/></linearGradient></defs><polygon id="triangle36" points="204,422 227,413 207,392" style="fill: url(#gr79); stroke: rgb(0, 0, 0); stroke-width: 0;"/><defs><linearGradient id="gr80" x1="0%" x2="100%" y1="0%" y2="100%"><stop offset="0%" stop-color="rgb(133,124,101)"/><stop offset="100%" stop-color="rgb(102,88,63)"/></linearGradient></defs><polygon id="triangle36" points="227,413 243,409 207,392" style="fill: url(#gr80); stroke: rgb(0, 0, 0); stroke-width: 0;"/><defs><linearGradient id="gr81" x1="0%" x2="100%" y1="0%" y2="100%"><stop offset="0%" stop-color="rgb(120,102,75)"/><stop offset="100%" stop-color="rgb(98,82,57)"/></linearGradient></defs><polygon id="triangle36" points="243,409 266,397 207,392" style="fill: url(#gr81); stroke: rgb(0, 0, 0); stroke-width: 0;"/><defs><linearGradient id="gr82" x1="0%" x2="100%" y1="0%" y2="100%"><stop offset="0%" stop-color="rgb(97,89,65)"/><stop offset="100%" stop-color="rgb(93,77,50)"/></linearGradient></defs><polygon id="triangle36" points="256,336 266,397 207,392" style="fill: url(#gr82); stroke: rgb(0, 0, 0); stroke-width: 0;"/><defs><linearGradient id="gr83" x1="0%" x2="100%" y1="0%" y2="100%"><stop offset="0%" stop-color="rgb(108,99,65)"/><stop offset="100%" stop-color="rgb(104,93,63)"/></linearGradient></defs><polygon id="triangle36" points="256,336 262,275 291,301" style="fill: url(#gr83); stroke: rgb(0, 0, 0); stroke-width: 0;"/><defs><linearGradient id="gr84" x1="0%" x2="100%" y1="0%" y2="100%"><stop offset="0%" stop-color="rgb(123,113,85)"/><stop offset="100%" stop-color="rgb(127,110,77)"/></linearGradient></defs><polygon id="triangle36" points="256,336 316,331 291,301" style="fill: url(#gr84); stroke: rgb(0, 0, 0); stroke-width: 0;"/><defs><linearGradient id="gr85" x1="0%" x2="100%" y1="0%" y2="100%"><stop offset="0%" stop-color="rgb(129,107,72)"/><stop offset="100%" stop-color="rgb(119,104,75)"/></linearGradient></defs><polygon id="triangle36" points="316,331 323,315 291,301" style="fill: url(#gr85); stroke: rgb(0, 0, 0); stroke-width: 0;"/><defs><linearGradient id="gr86" x1="0%" x2="100%" y1="0%" y2="100%"><stop offset="0%" stop-color="rgb(106,89,60)"/><stop offset="100%" stop-color="rgb(113,99,70)"/></linearGradient></defs><polygon id="triangle36" points="323,315 327,294 291,301" style="fill: url(#gr86); stroke: rgb(0, 0, 0); stroke-width: 0;"/><defs><linearGradient id="gr87" x1="0%" x2="100%" y1="0%" y2="100%"><stop offset="0%" stop-color="rgb(98,83,56)"/><stop offset="100%" stop-color="rgb(114,99,69)"/></linearGradient></defs><polygon id="triangle36" points="327,261 327,294 291,301" style="fill: url(#gr87); stroke: rgb(0, 0, 0); stroke-width: 0;"/><defs><linearGradient id="gr88" x1="0%" x2="100%" y1="0%" y2="100%"><stop offset="0%" stop-color="rgb(126,100,63)"/><stop offset="100%" stop-color="rgb(118,87,59)"/></linearGradient></defs><polygon id="triangle36" points="19,290 20,263 51,294" style="fill: url(#gr88); stroke: rgb(0, 0, 0); stroke-width: 0;"/><defs><linearGradient id="gr89" x1="0%" x2="100%" y1="0%" y2="100%"><stop offset="0%" stop-color="rgb(92,62,29)"/><stop offset="100%" stop-color="rgb(95,62,36)"/></linearGradient></defs><polygon id="triangle36" points="19,290 22,316 51,294" style="fill: url(#gr89); stroke: rgb(0, 0, 0); stroke-width: 0;"/><defs><linearGradient id="gr90" x1="0%" x2="100%" y1="0%" y2="100%"><stop offset="0%" stop-color="rgb(126,95,63)"/><stop offset="100%" stop-color="rgb(124,88,71)"/></linearGradient></defs><polygon id="triangle36" points="20,263 60,249 51,294" style="fill: url(#gr90); stroke: rgb(0, 0, 0); stroke-width: 0;"/><defs><linearGradient id="gr91" x1="0%" x2="100%" y1="0%" y2="100%"><stop offset="0%" stop-color="rgb(89,55,29)"/><stop offset="100%" stop-color="rgb(92,52,41)"/></linearGradient></defs><polygon id="triangle36" points="22,316 64,330 51,294" style="fill: url(#gr91); stroke: rgb(0, 0, 0); stroke-width: 0;"/><defs><linearGradient id="gr92" x1="0%" x2="100%" y1="0%" y2="100%"><stop offset="0%" stop-color="rgb(122,75,66)"/><stop offset="100%" stop-color="rgb(138,78,70)"/></linearGradient></defs><polygon id="triangle36" points="60,249 112,261 51,294" style="fill: url(#gr92); stroke: rgb(0, 0, 0); stroke-width: 0;"/><defs><linearGradient id="gr93" x1="0%" x2="100%" y1="0%" y2="100%"><stop offset="0%" stop-color="rgb(113,58,53)"/><stop offset="100%" stop-color="rgb(139,76,69)"/></linearGradient></defs><polygon id="triangle36" points="64,330 112,261 51,294" style="fill: url(#gr93); stroke: rgb(0, 0, 0); stroke-width: 0;"/><defs><linearGradient id="gr94" x1="0%" x2="100%" y1="0%" y2="100%"><stop offset="0%" stop-color="rgb(51,40,24)"/><stop offset="100%" stop-color="rgb(83,72,48)"/></linearGradient></defs><polygon id="triangle36" points="256,212 262,275 290,236" style="fill: url(#gr94); stroke: rgb(0, 0, 0); stroke-width: 0;"/><defs><linearGradient id="gr95" x1="0%" x2="100%" y1="0%" y2="100%"><stop offset="0%" stop-color="rgb(92,81,59)"/><stop offset="100%" stop-color="rgb(116,100,70)"/></linearGradient></defs><polygon id="triangle36" points="256,212 317,211 290,236" style="fill: url(#gr95); stroke: rgb(0, 0, 0); stroke-width: 0;"/><defs><linearGradient id="gr96" x1="0%" x2="100%" y1="0%" y2="100%"><stop offset="0%" stop-color="rgb(65,55,33)"/><stop offset="100%" stop-color="rgb(119,106,76)"/></linearGradient></defs><polygon id="triangle36" points="262,275 291,301 290,236" style="fill: url(#gr96); stroke: rgb(0, 0, 0); stroke-width: 0;"/><defs><linearGradient id="gr97" x1="0%" x2="100%" y1="0%" y2="100%"><stop offset="0%" stop-color="rgb(156,143,107)"/><stop offset="100%" stop-color="rgb(115,102,74)"/></linearGradient></defs><polygon id="triangle36" points="291,301 327,261 290,236" style="fill: url(#gr97); stroke: rgb(0, 0, 0); stroke-width: 0;"/><defs><linearGradient id="gr98" x1="0%" x2="100%" y1="0%" y2="100%"><stop offset="0%" stop-color="rgb(100,75,41)"/><stop offset="100%" stop-color="rgb(124,99,61)"/></linearGradient></defs><polygon id="triangle36" points="317,211 320,236 290,236" style="fill: url(#gr98); stroke: rgb(0, 0, 0); stroke-width: 0;"/><defs><linearGradient id="gr99" x1="0%" x2="100%" y1="0%" y2="100%"><stop offset="0%" stop-color="rgb(124,94,53)"/><stop offset="100%" stop-color="rgb(106,89,60)"/></linearGradient></defs><polygon id="triangle36" points="320,236 327,261 290,236" style="fill: url(#gr99); stroke: rgb(0, 0, 0); stroke-width: 0;"/><defs><linearGradient id="gr100" x1="0%" x2="100%" y1="0%" y2="100%"><stop offset="0%" stop-color="rgb(69,45,28)"/><stop offset="100%" stop-color="rgb(135,98,56)"/></linearGradient></defs><polygon id="triangle36" points="142,197 168,269 204,200" style="fill: url(#gr100); stroke: rgb(0, 0, 0); stroke-width: 0;"/><defs><linearGradient id="gr101" x1="0%" x2="100%" y1="0%" y2="100%"><stop offset="0%" stop-color="rgb(161,129,56)"/><stop offset="100%" stop-color="rgb(112,89,40)"/></linearGradient></defs><polygon id="triangle36" points="168,269 212,277 204,200" style="fill: url(#gr101); stroke: rgb(0, 0, 0); stroke-width: 0;"/><defs><linearGradient id="gr102" x1="0%" x2="100%" y1="0%" y2="100%"><stop offset="0%" stop-color="rgb(94,74,37)"/><stop offset="100%" stop-color="rgb(66,44,28)"/></linearGradient></defs><polygon id="triangle36" points="212,277 256,212 204,200" style="fill: url(#gr102); stroke: rgb(0, 0, 0); stroke-width: 0;"/><defs><linearGradient id="gr103" x1="0%" x2="100%" y1="0%" y2="100%"><stop offset="0%" stop-color="rgb(89,68,47)"/><stop offset="100%" stop-color="rgb(64,45,28)"/></linearGradient></defs><polygon id="triangle36" points="253,158 256,212 204,200" style="fill: url(#gr103); stroke: rgb(0, 0, 0); stroke-width: 0;"/><defs><linearGradient id="gr104" x1="0%" x2="100%" y1="0%" y2="100%"><stop offset="0%" stop-color="rgb(37,25,15)"/><stop offset="100%" stop-color="rgb(73,55,38)"/></linearGradient></defs><polygon id="triangle36" points="142,197 146,144 199,152" style="fill: url(#gr104); stroke: rgb(0, 0, 0); stroke-width: 0;"/><defs><linearGradient id="gr105" x1="0%" x2="100%" y1="0%" y2="100%"><stop offset="0%" stop-color="rgb(16,9,2)"/><stop offset="100%" stop-color="rgb(61,40,24)"/></linearGradient></defs><polygon id="triangle36" points="142,197 204,200 199,152" style="fill: url(#gr105); stroke: rgb(0, 0, 0); stroke-width: 0;"/><defs><linearGradient id="gr106" x1="0%" x2="100%" y1="0%" y2="100%"><stop offset="0%" stop-color="rgb(95,79,57)"/><stop offset="100%" stop-color="rgb(92,72,51)"/></linearGradient></defs><polygon id="triangle36" points="146,144 168,99 199,152" style="fill: url(#gr106); stroke: rgb(0, 0, 0); stroke-width: 0;"/><defs><linearGradient id="gr107" x1="0%" x2="100%" y1="0%" y2="100%"><stop offset="0%" stop-color="rgb(94,72,52)"/><stop offset="100%" stop-color="rgb(90,63,43)"/></linearGradient></defs><polygon id="triangle36" points="168,99 230,105 199,152" style="fill: url(#gr107); stroke: rgb(0, 0, 0); stroke-width: 0;"/><defs><linearGradient id="gr108" x1="0%" x2="100%" y1="0%" y2="100%"><stop offset="0%" stop-color="rgb(73,47,29)"/><stop offset="100%" stop-color="rgb(82,58,38)"/></linearGradient></defs><polygon id="triangle36" points="204,200 253,158 199,152" style="fill: url(#gr108); stroke: rgb(0, 0, 0); stroke-width: 0;"/><defs><linearGradient id="gr109" x1="0%" x2="100%" y1="0%" y2="100%"><stop offset="0%" stop-color="rgb(100,72,50)"/><stop offset="100%" stop-color="rgb(96,70,47)"/></linearGradient></defs><polygon id="triangle36" points="230,105 253,158 199,152" style="fill: url(#gr109); stroke: rgb(0, 0, 0); stroke-width: 0;"/></svg>